<svg width="14" height="14" viewBox="0 0 14 14" fill="none" xmlns="http://www.w3.org/2000/svg">
<g id="Icons-dribbble" clip-path="url(#clip0_2402_906)">
<path id="Vector" d="M11.6596 6.75017C11.6118 5.83195 11.2924 4.94861 10.742 4.21209C10.5743 4.3927 10.395 4.56223 10.2053 4.71959C9.62256 5.20366 8.9713 5.59878 8.27277 5.89209C8.37018 6.09625 8.45943 6.294 8.53818 6.48067V6.48242C8.5604 6.53458 8.5818 6.58709 8.60235 6.63992C9.48552 6.54075 10.4165 6.57692 11.3189 6.69884C11.4391 6.71517 11.5523 6.73267 11.6596 6.75017ZM6.18502 2.40434C6.7535 3.20535 7.27772 4.03688 7.75535 4.89517C8.46877 4.614 9.05852 4.25934 9.53335 3.86442C9.69817 3.72858 9.85332 3.58142 9.99768 3.424C9.15825 2.71801 8.0962 2.33161 6.99935 2.33317C6.72637 2.33298 6.45389 2.3566 6.18502 2.40375V2.40434ZM2.48027 5.83142C2.87765 5.82139 3.27456 5.79746 3.67027 5.75967C4.62672 5.67412 5.57501 5.5138 6.50643 5.28017C6.01965 4.43446 5.49409 3.61167 4.93143 2.81442C4.33043 3.11215 3.8005 3.53566 3.37758 4.05621C2.95465 4.57677 2.64863 5.18219 2.48027 5.83142ZM3.37277 9.93692C3.5991 9.60617 3.8966 9.234 4.29152 8.82917C5.13968 7.96 6.14068 7.28334 7.29918 6.91L7.33535 6.8995C7.2391 6.68717 7.14868 6.49759 7.05768 6.31909C5.98668 6.63117 4.85852 6.826 3.73443 6.92692C3.1861 6.9765 2.69435 6.99809 2.33268 7.00159C2.33165 8.0706 2.69919 9.10729 3.37335 9.93692H3.37277ZM8.75227 11.3253C8.52731 10.1908 8.20889 9.07694 7.80027 7.995C6.63243 8.41909 5.70202 9.03917 4.98277 9.77884C4.6925 10.0719 4.43491 10.3956 4.21452 10.7443C5.01882 11.3444 5.99583 11.6679 6.99935 11.6665C7.60013 11.6674 8.19539 11.5519 8.75227 11.3264V11.3253ZM9.84485 10.6982C10.7556 9.99803 11.376 8.9865 11.5873 7.85734C11.3889 7.80775 11.1375 7.75817 10.861 7.71967C10.2463 7.63115 9.62247 7.62467 9.00602 7.70042C9.35313 8.67974 9.63339 9.68148 9.84485 10.6988V10.6982ZM6.99935 12.8332C3.7776 12.8332 1.16602 10.2216 1.16602 6.99984C1.16602 3.77809 3.7776 1.1665 6.99935 1.1665C10.2211 1.1665 12.8327 3.77809 12.8327 6.99984C12.8327 10.2216 10.2211 12.8332 6.99935 12.8332Z" fill="#2B2B2B"/>
</g>
<defs>
<clipPath id="clip0_2402_906">
<rect width="14" height="14" fill="white"/>
</clipPath>
</defs>
</svg>
