<svg width="14" height="14" viewBox="0 0 14 14" fill="none" xmlns="http://www.w3.org/2000/svg">
<g id="Icons-instagram" clip-path="url(#clip0_2402_766)">
<path id="Vector" d="M6.99935 1.1665C8.58427 1.1665 8.78202 1.17234 9.40385 1.2015C10.0251 1.23067 10.448 1.32809 10.8202 1.47275C11.2052 1.62092 11.5295 1.82159 11.8539 2.14534C12.1505 2.43694 12.38 2.78968 12.5264 3.179C12.6705 3.55059 12.7685 3.97409 12.7977 4.59534C12.8251 5.21717 12.8327 5.41492 12.8327 6.99984C12.8327 8.58475 12.8268 8.7825 12.7977 9.40434C12.7685 10.0256 12.6705 10.4485 12.5264 10.8207C12.3804 11.2102 12.1508 11.563 11.8539 11.8543C11.5622 12.1509 11.2094 12.3804 10.8202 12.5269C10.4486 12.671 10.0251 12.769 9.40385 12.7982C8.78202 12.8256 8.58427 12.8332 6.99935 12.8332C5.41443 12.8332 5.21668 12.8273 4.59485 12.7982C3.9736 12.769 3.55068 12.671 3.17852 12.5269C2.78904 12.3808 2.43624 12.1512 2.14485 11.8543C1.84817 11.5628 1.61864 11.21 1.47227 10.8207C1.3276 10.4491 1.23018 10.0256 1.20102 9.40434C1.1736 8.7825 1.16602 8.58475 1.16602 6.99984C1.16602 5.41492 1.17185 5.21717 1.20102 4.59534C1.23018 3.9735 1.3276 3.55117 1.47227 3.179C1.61824 2.78944 1.84782 2.43661 2.14485 2.14534C2.43632 1.84856 2.7891 1.61901 3.17852 1.47275C3.55068 1.32809 3.97302 1.23067 4.59485 1.2015C5.21668 1.17409 5.41443 1.1665 6.99935 1.1665ZM6.99935 4.08317C6.2258 4.08317 5.48394 4.39046 4.93695 4.93744C4.38997 5.48442 4.08268 6.22629 4.08268 6.99984C4.08268 7.77339 4.38997 8.51525 4.93695 9.06223C5.48394 9.60921 6.2258 9.9165 6.99935 9.9165C7.7729 9.9165 8.51476 9.60921 9.06174 9.06223C9.60873 8.51525 9.91602 7.77339 9.91602 6.99984C9.91602 6.22629 9.60873 5.48442 9.06174 4.93744C8.51476 4.39046 7.7729 4.08317 6.99935 4.08317ZM10.791 3.93734C10.791 3.74395 10.7142 3.55848 10.5774 3.42174C10.4407 3.28499 10.2552 3.20817 10.0618 3.20817C9.86846 3.20817 9.683 3.28499 9.54625 3.42174C9.4095 3.55848 9.33268 3.74395 9.33268 3.93734C9.33268 4.13072 9.4095 4.31619 9.54625 4.45294C9.683 4.58968 9.86846 4.6665 10.0618 4.6665C10.2552 4.6665 10.4407 4.58968 10.5774 4.45294C10.7142 4.31619 10.791 4.13072 10.791 3.93734ZM6.99935 5.24984C7.46348 5.24984 7.9086 5.43421 8.23679 5.7624C8.56498 6.09059 8.74935 6.53571 8.74935 6.99984C8.74935 7.46397 8.56498 7.90909 8.23679 8.23727C7.9086 8.56546 7.46348 8.74984 6.99935 8.74984C6.53522 8.74984 6.0901 8.56546 5.76191 8.23727C5.43372 7.90909 5.24935 7.46397 5.24935 6.99984C5.24935 6.53571 5.43372 6.09059 5.76191 5.7624C6.0901 5.43421 6.53522 5.24984 6.99935 5.24984Z" fill="#2B2B2B"/>
</g>
<defs>
<clipPath id="clip0_2402_766">
<rect width="14" height="14" fill="white"/>
</clipPath>
</defs>
</svg>
