<svg width="14" height="14" viewBox="0 0 14 14" fill="none" xmlns="http://www.w3.org/2000/svg">
<g id="Icons-twitter" clip-path="url(#clip0_2402_388)">
<path id="Vector" d="M12.9272 3.29953C12.4819 3.49652 12.0096 3.62589 11.526 3.68337C12.0357 3.37854 12.4172 2.89879 12.5994 2.33353C12.121 2.6182 11.5966 2.8177 11.05 2.92562C10.6829 2.53279 10.1962 2.27226 9.66575 2.18454C9.13526 2.09682 8.59066 2.18682 8.1166 2.44055C7.64254 2.69428 7.26559 3.09752 7.04434 3.58758C6.8231 4.07764 6.76996 4.62707 6.89319 5.15045C5.92317 5.10183 4.97422 4.84976 4.10794 4.41059C3.24167 3.97142 2.47743 3.35498 1.86486 2.60128C1.64803 2.97371 1.53408 3.39708 1.53469 3.82803C1.53469 4.67387 1.96519 5.42112 2.61969 5.85862C2.23236 5.84642 1.85356 5.74182 1.51486 5.55354V5.58387C1.51498 6.14719 1.70991 6.69314 2.0666 7.12915C2.4233 7.56516 2.91981 7.8644 3.47194 7.97612C3.11238 8.07356 2.73537 8.08792 2.36944 8.01812C2.52512 8.503 2.82853 8.92707 3.2372 9.23093C3.64588 9.5348 4.13935 9.70325 4.64853 9.7127C4.14247 10.1101 3.56305 10.4039 2.94337 10.5773C2.3237 10.7507 1.67593 10.8002 1.03711 10.723C2.15227 11.4402 3.45042 11.8209 4.77628 11.8197C9.26386 11.8197 11.7179 8.10212 11.7179 4.87804C11.7179 4.77304 11.715 4.66687 11.7104 4.56303C12.188 4.2178 12.6003 3.79013 12.9278 3.30012L12.9272 3.29953Z" fill="#2B2B2B"/>
</g>
<defs>
<clipPath id="clip0_2402_388">
<rect width="14" height="14" fill="white"/>
</clipPath>
</defs>
</svg>
