<svg width="14" height="14" viewBox="0 0 14 14" fill="none" xmlns="http://www.w3.org/2000/svg">
<g id="Icons-Youtube" clip-path="url(#clip0_2402_902)">
<path id="Vector" d="M12.5661 3.79066C12.8327 4.83016 12.8327 7.00016 12.8327 7.00016C12.8327 7.00016 12.8327 9.17016 12.5661 10.2097C12.4179 10.7842 11.9845 11.2363 11.4356 11.3892C10.4387 11.6668 6.99935 11.6668 6.99935 11.6668C6.99935 11.6668 3.56177 11.6668 2.5631 11.3892C2.01185 11.234 1.57902 10.7825 1.4326 10.2097C1.16602 9.17016 1.16602 7.00016 1.16602 7.00016C1.16602 7.00016 1.16602 4.83016 1.4326 3.79066C1.58077 3.21608 2.01418 2.764 2.5631 2.61116C3.56177 2.3335 6.99935 2.3335 6.99935 2.3335C6.99935 2.3335 10.4387 2.3335 11.4356 2.61116C11.9868 2.76633 12.4197 3.21783 12.5661 3.79066ZM5.83268 9.04183L9.33268 7.00016L5.83268 4.9585V9.04183Z" fill="#2B2B2B"/>
</g>
<defs>
<clipPath id="clip0_2402_902">
<rect width="14" height="14" fill="white"/>
</clipPath>
</defs>
</svg>
