<svg width="140" height="140" viewBox="0 0 140 140" fill="none" xmlns="http://www.w3.org/2000/svg">
<g clip-path="url(#clip0_202_524)">
<path d="M62.2653 101.315C62.2946 102.886 60.4674 104.543 58.5229 104.633C58.7829 105.849 59.1015 107.035 58.5815 108.277C57.8271 110.234 55.7984 111.3 53.7954 111.034C50.5766 110.589 49.7051 106.055 52.8103 104.693C53.9126 104.218 55.5641 105.314 54.3483 106.41C53.6819 107.031 52.5796 107.211 53.0703 108.513C53.3596 109.224 54.1433 109.373 54.7804 109.253C55.8827 109.048 56.4905 108.097 56.5491 107.031C56.6956 106.111 56.3477 105.164 56.1134 104.214C54.6633 103.503 53.561 101.872 53.9675 100.215C54.2861 98.763 56.0548 99.3541 55.359 100.274C55.0404 100.896 55.5055 101.786 56.0255 102.261C56.172 101.58 56.4027 100.929 56.7798 100.304C58.2336 98.026 62.2068 97.9063 62.2653 101.315ZM60.0902 100.248C58.8122 100.013 58.2922 101.73 58.2629 102.65C58.2629 102.71 58.2629 102.77 58.2629 102.83C58.6987 102.77 59.1344 102.624 59.4823 102.385C60.3795 101.76 61.0496 100.574 60.0902 100.248Z" fill="#767676"/>
<path d="M66.067 101.049C65.7777 101.404 65.2247 102.115 64.6169 103.005C64.8183 103.005 64.994 103.035 65.0819 103.035C65.547 103.065 65.0526 104.311 64.5033 104.311C64.3019 104.311 64.009 104.281 63.7197 104.281C62.3575 106.268 60.9953 108.4 61.1967 108.58C61.5738 108.995 63.4011 106.893 64.1555 106.002C64.6791 105.411 65.3456 106.092 64.7926 106.713C63.489 108.105 61.5445 110.832 59.9773 110.537C58.8164 110.357 58.3514 109.025 59.3108 107.693C59.7173 107.102 60.5888 105.677 61.4859 104.225C61.3395 104.225 61.1967 104.225 61.0502 104.225C60.5265 104.225 61.0795 102.949 61.6031 102.919C61.7496 102.919 62.0096 102.919 62.2989 102.919C63.2254 101.438 64.0383 100.162 64.3019 99.9263C64.767 99.4811 65.3163 99.1257 65.7813 99.2454C66.2391 99.3876 66.9348 100.042 66.067 101.049Z" fill="#767676"/>
<path d="M72.2434 106.739C70.9654 108.131 69.0539 110.829 67.4866 110.563C66.908 110.443 66.6736 109.912 66.7322 109.257C66.2379 109.818 65.5714 110.323 64.8463 110.323C62.4405 110.323 63.1362 107.211 64.5571 105.523C65.9779 103.832 67.7759 102.65 68.9074 103.121C69.2846 103.271 69.5153 103.567 69.6324 103.892C69.691 103.802 69.7203 103.742 69.7789 103.686C70.244 103.241 70.8226 102.886 71.2583 103.035C71.7527 103.155 72.4191 103.836 71.5769 104.842C70.5918 105.969 68.7353 108.221 69.0246 108.516C69.2846 108.782 70.9104 106.885 71.6648 105.998C72.1848 105.404 72.7926 106.144 72.2434 106.739ZM67.3987 106.739C68.2995 105.613 68.8488 104.667 68.6474 104.487C68.4753 104.307 67.5745 105.138 66.5894 106.354C65.6337 107.54 65.1393 108.696 65.2565 108.812C65.5128 109.078 66.4979 107.865 67.3987 106.739Z" fill="#767676"/>
<path d="M77.3492 101.049C77.0599 101.404 76.507 102.115 75.8991 103.005C76.1005 103.005 76.2763 103.035 76.3642 103.035C76.8292 103.065 76.3349 104.311 75.7856 104.311C75.5842 104.311 75.2912 104.281 75.002 104.281C73.6397 106.268 72.2775 108.4 72.4789 108.58C72.8561 108.995 74.6834 106.893 75.4377 106.002C75.9614 105.411 76.6278 106.092 76.0749 106.713C74.7713 108.105 72.8268 110.832 71.2595 110.537C70.0987 110.357 69.6336 109.025 70.593 107.693C70.9995 107.102 71.871 105.677 72.7682 104.225C72.6217 104.225 72.4789 104.225 72.3324 104.225C71.8088 104.225 72.3617 102.949 72.8854 102.919C73.0318 102.919 73.2918 102.919 73.5811 102.919C74.5076 101.438 75.3205 100.162 75.5842 99.9263C76.0492 99.4811 76.5985 99.1257 77.0636 99.2454C77.5213 99.3876 78.2171 100.042 77.3492 101.049Z" fill="#767676"/>
<path d="M79.4938 106.739C78.1865 108.131 76.3042 110.829 74.7076 110.563C73.5761 110.357 73.4589 109.022 74.3891 107.69C75.3741 106.328 76.4763 104.222 77 103.69C77.4651 103.245 78.0437 102.89 78.4794 103.039C78.9738 103.159 79.6695 103.84 78.798 104.846C77.813 105.973 75.9564 108.225 76.2456 108.52C76.5056 108.786 78.1608 106.889 78.9152 106.002C79.4059 105.404 80.043 106.145 79.4938 106.739ZM79.5524 102.235C78.1608 102.235 79.523 99.0923 81.1196 99.4477C82.5954 99.7732 80.6546 102.59 79.5524 102.235Z" fill="#767676"/>
<path d="M86.4567 106.739C86.021 107.184 85.5596 107.776 85.0652 108.34C83.963 109.556 83.6151 110.002 82.5422 109.792C82.3664 109.762 82.2529 109.702 82.1357 109.612C81.4399 110.118 80.7442 110.383 80.1619 110.383C78.1882 110.383 77.551 108.337 78.7411 106.294C79.9312 104.221 81.872 102.886 83.2672 102.886C84.7466 102.886 85.8782 104.131 84.7173 106.47C84.3402 107.211 83.9044 107.862 83.4393 108.426C83.6407 108.337 83.9886 108.071 84.3402 107.686C84.8895 107.121 85.4717 106.44 85.8489 105.995C86.3689 105.404 87.006 106.144 86.4567 106.739ZM83.1793 104.633C82.3371 104.633 79.4955 108.722 80.3084 108.722C80.9163 108.722 84.0216 104.633 83.1793 104.633Z" fill="#767676"/>
<path d="M93.2403 106.739C91.9366 108.131 90.0508 110.829 88.4542 110.563C86.8576 110.267 87.2641 108.696 88.2235 107.364C89.1499 106.032 90.3401 105.022 90.1386 104.757C89.9629 104.491 88.2235 106.298 87.6742 106.889C87.037 107.866 86.3962 108.816 85.9934 109.377C85.3855 110.237 85.1219 110.563 84.4261 110.563C83.3532 110.563 83.6425 109.111 84.9498 107.364C85.9055 106.032 86.7477 104.637 86.8942 104.341C87.33 103.451 87.4728 103.009 88.0843 103.009C88.5494 103.009 89.128 103.365 89.2158 103.986C89.9116 103.425 90.6367 103.009 91.3617 103.009C92.0575 103.009 93.0425 103.84 92.1161 105.202C91.1896 106.564 89.7102 108.225 89.9995 108.52C90.2595 108.786 91.8854 106.889 92.6397 106.002C93.1524 105.404 93.7932 106.145 93.2403 106.739Z" fill="#767676"/>
<path d="M18.8141 64.0849L19.8101 65.978C21.1797 68.582 20.2203 71.8556 17.7009 73.2399L15.4708 74.4671L20.0042 83.0722C20.2239 83.4875 20.0738 83.9851 19.671 84.2095L17.646 85.3245C17.2395 85.5489 16.7524 85.3955 16.5327 84.984L6.40394 65.7647C6.18423 65.3495 6.33435 64.8519 6.73716 64.6274L11.7137 61.8887C14.2367 60.5007 17.4446 61.4847 18.8141 64.0849ZM15.2621 65.8471C14.9178 65.1961 14.1488 64.9342 13.5117 65.2859L11.2816 66.513L13.5886 70.8904L15.8187 69.6632C16.4559 69.3115 16.6682 68.5109 16.3387 67.8898L15.2621 65.8471Z" fill="#767676"/>
<path d="M25.4703 59.8126L27.162 64.5079L29.8755 63.4865C30.3076 63.3256 30.7727 63.5426 30.9301 63.9841L31.6332 65.937C31.7907 66.3785 31.5783 66.8537 31.1462 67.0145L28.4327 68.0359L30.8276 74.6841L35.1157 73.0716C35.5478 72.9108 36.0128 73.1278 36.1703 73.5692L36.8954 75.5858C37.0528 76.0273 36.8404 76.5024 36.4083 76.6633L29.1578 79.3907C28.7257 79.5515 28.2606 79.3345 28.1032 78.8931L20.7208 58.4096C20.5633 57.9681 20.7757 57.493 21.2078 57.3321L28.4547 54.6047C28.8868 54.4438 29.3518 54.6608 29.5093 55.1023L30.2344 57.1189C30.3918 57.5603 30.1794 58.0355 29.7473 58.1963L25.4703 59.8126Z" fill="#767676"/>
<path d="M43.5545 51.3349L44.0782 53.4861C44.188 53.9426 43.8914 54.399 43.4776 54.5038L40.7349 55.1997L45.1584 73.4197C45.2683 73.8761 45.0046 74.3251 44.5579 74.4373L42.3241 75.0022C41.9103 75.107 41.4379 74.8451 41.3281 74.3887L36.9045 56.1686L34.1911 56.857C33.7443 56.9693 33.3049 56.6999 33.195 56.2435L32.6714 54.0922C32.5615 53.6358 32.8252 53.1868 33.2719 53.0746L42.5548 50.7213C42.9759 50.6166 43.4447 50.8785 43.5545 51.3349Z" fill="#767676"/>
<path d="M56.9912 61.0399L60.6824 66.2103C60.8911 66.5209 61.0083 66.9099 61.0595 67.2766L61.5136 70.6026C61.5759 71.0665 61.3012 71.4818 60.8472 71.5454L58.5695 71.8709C58.1154 71.9345 57.6723 71.6239 57.61 71.16L57.2914 68.833C57.2402 68.4663 57.1267 68.1109 56.9106 67.733L52.5273 61.6423L53.9005 71.7212C53.9628 72.1851 53.6552 72.6041 53.2011 72.6677L50.9234 72.9932C50.4986 73.0531 50.0592 72.7426 49.9969 72.2787L47.0455 50.6579C46.9832 50.194 47.3238 49.7712 47.7449 49.7114L53.3769 48.9108C56.2405 48.503 58.8807 50.5681 59.2799 53.4938L59.5655 55.5889C59.8731 57.8486 58.7708 59.9737 56.9912 61.0399ZM53.8969 52.7343L51.3592 53.0972L52.0366 58.0544L54.5743 57.6915C55.2591 57.5942 55.7608 56.9133 55.6582 56.1463L55.3433 53.853C55.2444 53.1197 54.5817 52.637 53.8969 52.7343Z" fill="#767676"/>
<path d="M74.5119 51.7651L75.0062 66.6368C75.0868 69.02 73.2449 70.9992 70.9452 71.0778L67.3309 71.2012C64.9983 71.2835 63.0612 69.4353 62.9843 67.0521L62.4899 52.1804C62.4093 49.7972 64.2183 47.7844 66.5509 47.7058L70.1652 47.5823C72.4612 47.5038 74.4313 49.3856 74.5119 51.7651ZM70.579 52.2403C70.5644 51.7689 70.1579 51.4471 69.6965 51.4658L67.265 51.5519C66.8036 51.5668 66.4228 51.9185 66.4374 52.3862L66.9061 66.4834C66.9208 66.9548 67.3309 67.3439 67.7886 67.3252L70.2201 67.2392C70.6815 67.2242 71.0624 66.8052 71.0441 66.3375L70.579 52.2403Z" fill="#767676"/>
<path d="M82.5015 48.6404L81.4323 67.4478L86.0243 67.721C86.482 67.7472 86.8225 68.14 86.7969 68.6076L86.6761 70.7514C86.6504 71.2191 86.2659 71.567 85.8082 71.5408L78.0963 71.0844C77.6385 71.0582 77.298 70.6654 77.3236 70.1977L78.5613 48.4085C78.587 47.9408 78.9715 47.5929 79.4292 47.6191L81.7252 47.7537C82.1866 47.7837 82.5272 48.1728 82.5015 48.6404Z" fill="#767676"/>
<path d="M94.6489 52.854L93.9495 57.8074L96.8131 58.2302C97.2671 58.2975 97.5747 58.7165 97.5088 59.1805L97.2195 61.2419C97.1536 61.7058 96.7435 62.0201 96.2894 61.9527L93.4258 61.53L92.4371 68.5448L96.9595 69.2107C97.4136 69.2781 97.7212 69.6971 97.6553 70.161L97.355 72.2898C97.2891 72.7537 96.879 73.068 96.4249 73.0006L88.7789 71.8745C88.3248 71.8072 88.0172 71.3881 88.0831 70.9242L91.1298 49.3185C91.1957 48.8546 91.6058 48.5404 92.0599 48.6077L99.7059 49.7338C100.16 49.8012 100.468 50.2202 100.402 50.6841L100.101 52.8129C100.036 53.2768 99.6254 53.591 99.1713 53.5237L94.6489 52.854Z" fill="#767676"/>
<path d="M113.253 52.8538L115.483 53.4337C115.93 53.5497 116.183 54.0323 116.069 54.4888L111.631 72.2562C111.063 74.5346 108.742 75.9376 106.515 75.3577L103.011 74.4449C100.781 73.865 99.4038 71.493 99.975 69.2183L104.413 51.4508C104.527 50.9944 104.973 50.6951 105.42 50.8111L107.65 51.391C108.097 51.5069 108.35 51.9896 108.236 52.446L103.893 69.8244C103.78 70.2808 104.073 70.7372 104.519 70.8532L106.878 71.4668C107.324 71.5828 107.797 71.3246 107.91 70.8682L112.253 53.4898C112.36 53.0371 112.806 52.7378 113.253 52.8538Z" fill="#767676"/>
<path d="M129.122 79.9521L127.932 82.8292C127.748 83.2595 127.243 83.4391 126.851 83.2632L124.742 82.3241C124.321 82.1371 124.134 81.6507 124.317 81.2204L125.339 78.8185C125.419 78.6352 125.482 78.4781 125.533 78.2835L128.576 68.0285L123.347 76.6897C123.131 77.0339 122.71 77.1761 122.347 77.0152L120.055 75.9976C119.692 75.8367 119.48 75.4139 119.575 75.0173L122.215 65.2038L116.942 74.4674C116.832 74.6395 116.766 74.7928 116.69 74.9762L115.668 77.3781C115.485 77.8084 115.009 77.9992 114.588 77.8121L112.478 76.873C112.057 76.686 111.87 76.1996 112.054 75.7693L113.302 72.9184C113.343 72.8249 113.434 72.6117 113.57 72.376L123.102 56.7297C123.318 56.3855 123.739 56.2434 124.131 56.4192L126.39 57.4256C126.782 57.6015 126.965 58.0093 126.87 58.4059L123.9 70.0863L130.275 59.9173C130.491 59.5731 130.912 59.431 131.275 59.5918L133.567 60.6095C133.959 60.7853 134.142 61.1931 134.047 61.5897L129.338 79.3797C129.254 79.6416 129.162 79.8586 129.122 79.9521Z" fill="#767676"/>
<path d="M72.7886 78.2125C72.774 78.2125 72.7557 78.2125 72.741 78.2125C72.7337 78.2125 72.7264 78.2125 72.7154 78.2125C72.7081 78.2125 72.7008 78.2125 72.6898 78.2125C72.6751 78.2125 72.6568 78.2125 72.6422 78.2125C49.4148 78.2125 28.9045 84.8645 16.5273 95.0332L22.379 98.015L23.0858 104.94C25.1657 103.043 27.6998 101.218 30.6732 99.5115C41.7212 93.1626 56.6251 89.6645 72.6385 89.6645C72.6532 89.6645 72.6715 89.6645 72.6861 89.6645C72.6934 89.6645 72.7008 89.6645 72.7118 89.6645C72.7191 89.6645 72.7264 89.6645 72.7374 89.6645C72.752 89.6645 72.7704 89.6645 72.785 89.6645C88.8021 89.6645 103.706 93.1626 114.75 99.5115C117.724 101.221 120.258 103.043 122.338 104.94L123.044 98.015L128.896 95.0332C116.526 84.8645 96.016 78.2125 72.7886 78.2125Z" fill="#767676"/>
<path d="M47.7599 107.518C48.9866 107.518 48.9866 105.576 47.7599 105.576C46.5332 105.576 46.5332 107.518 47.7599 107.518Z" fill="#767676"/>
<path d="M96.2833 107.518C97.5101 107.518 97.5101 105.576 96.2833 105.576C95.0566 105.576 95.0566 107.518 96.2833 107.518Z" fill="#767676"/>
<path d="M29.5214 94.5543C29.8619 95.1341 29.6788 95.8823 29.1112 96.2302C28.551 96.5744 27.8112 96.3911 27.4707 95.8112C27.1338 95.2388 27.3205 94.4794 27.8808 94.1353C28.4484 93.7874 29.1845 93.9819 29.5214 94.5543Z" fill="white"/>
<path d="M35.6409 92.1111L36.0731 93.0501C36.3953 93.7498 36.106 94.5879 35.4212 94.9208L33.9418 95.6317C33.832 95.6841 33.7075 95.6392 33.6562 95.527L31.2723 90.3563C31.221 90.2441 31.265 90.1169 31.3748 90.0645L32.7297 89.4135C33.4145 89.0843 34.2311 89.3911 34.5534 90.0907L34.7914 90.607C34.9122 90.8689 34.9525 91.142 34.9049 91.4077C35.2235 91.5311 35.4871 91.7743 35.6409 92.1111ZM33.0813 91.7968L33.6965 91.5012C33.8613 91.4226 33.9345 91.2131 33.8576 91.0448L33.6049 90.4948C33.5244 90.3189 33.3193 90.2441 33.1545 90.3227L32.5393 90.6182L33.0813 91.7968ZM34.6852 92.5114C34.6046 92.3355 34.3996 92.2607 34.2348 92.3393L33.4951 92.6947L34.2567 94.3484L34.9965 93.993C35.1612 93.9144 35.2345 93.7049 35.1503 93.5216L34.6852 92.5114Z" fill="white"/>
<path d="M36.5378 88.8001L37.0212 90.016L37.7243 89.7242C37.8378 89.6793 37.9586 89.7317 38.0063 89.8439L38.2077 90.349C38.2516 90.465 38.2003 90.5884 38.0905 90.6371L37.3874 90.9289L38.0685 92.6498L39.1781 92.1897C39.2879 92.1448 39.4124 92.1971 39.4564 92.3094L39.6651 92.8294C39.709 92.9454 39.6578 93.0688 39.5479 93.1175L37.673 93.8919C37.5595 93.9368 37.4387 93.8844 37.3911 93.7722L35.2891 88.4747C35.2452 88.3624 35.2965 88.2352 35.4063 88.1866L37.2812 87.4122C37.3911 87.3673 37.5156 87.4196 37.5595 87.5319L37.7646 88.0519C37.8085 88.1641 37.7572 88.2913 37.6474 88.34L36.5378 88.8001Z" fill="white"/>
<path d="M40.9866 87.6926L40.928 87.5167C40.8657 87.3334 40.6717 87.2436 40.4922 87.3072L40.1187 87.4419C39.9393 87.5055 39.8404 87.7 39.9027 87.8834L40.0748 88.3884C40.137 88.5717 40.3311 88.6615 40.5142 88.6054L40.8877 88.4707C41.6128 88.2126 42.3891 88.5979 42.6418 89.3387L42.9897 90.3601C43.2387 91.0896 42.8578 91.8977 42.1438 92.1521L41.7703 92.2868C41.0562 92.5412 40.2652 92.1521 40.0162 91.4189L39.7855 90.7379C39.7452 90.622 39.8038 90.4985 39.9173 90.4573L40.4849 90.2553C40.5984 90.2142 40.7193 90.274 40.7596 90.39L41.0049 91.1121C41.0672 91.2954 41.2649 91.3927 41.4443 91.3291L41.8179 91.1944C41.9973 91.1308 42.0925 90.9288 42.0302 90.7454L41.6604 89.6642C41.5981 89.4809 41.404 89.3911 41.2246 89.4547L40.8511 89.5894C40.1334 89.8363 39.3497 89.4622 39.1007 88.7326L38.9396 88.2575C38.6906 87.5279 39.0714 86.7198 39.7855 86.4654L40.159 86.3307C40.8841 86.0726 41.664 86.4654 41.9131 87.1987L41.9607 87.3409C42.0009 87.4569 41.9424 87.5803 41.8288 87.6215L41.2612 87.8235C41.1477 87.8684 41.0269 87.8085 40.9866 87.6926Z" fill="white"/>
<path d="M45.2496 84.9392L45.4107 85.4967C45.4437 85.6164 45.3741 85.7361 45.2642 85.7698L44.5538 85.983L45.9197 90.6968C45.9526 90.8165 45.8904 90.9362 45.7732 90.9698L45.1946 91.1457C45.0884 91.1793 44.9603 91.1158 44.9273 90.996L43.5614 86.2823L42.862 86.4955C42.7448 86.5292 42.6277 86.4656 42.5947 86.3459L42.4336 85.7885C42.4006 85.6688 42.4629 85.549 42.58 85.5154L44.9822 84.7896C45.0921 84.7597 45.2166 84.8195 45.2496 84.9392Z" fill="white"/>
<path d="M52.0703 88.3137L52.4072 88.2388C52.5061 88.2164 52.6306 88.2875 52.6562 88.4072L52.7771 88.9647C52.8027 89.0844 52.7221 89.2004 52.6049 89.2303L50.9424 89.6082C50.287 89.7579 49.6388 89.3351 49.496 88.6729L48.716 85.0773C48.5695 84.4076 48.9833 83.7454 49.6388 83.5994L50.3456 83.4386C51.001 83.2889 51.6492 83.7117 51.792 84.3814L52.4328 87.3446C52.5134 87.7188 52.3596 88.0967 52.0703 88.3137ZM50.7813 84.6059C50.7557 84.4862 50.6312 84.4038 50.514 84.4338L49.8915 84.576C49.7743 84.6021 49.6937 84.7294 49.723 84.8491L50.503 88.4484C50.5286 88.5606 50.6495 88.6392 50.7667 88.613L51.6052 88.4222L50.7813 84.6059Z" fill="white"/>
<path d="M55.0481 82.5146L55.6413 82.4098C55.7585 82.3874 55.872 82.4772 55.8903 82.5969L56.6996 87.3261C56.8021 87.9322 56.3956 88.5233 55.8024 88.6281L54.8686 88.7927C54.2754 88.8975 53.6968 88.4822 53.5943 87.8761L52.785 83.1469C52.763 83.0272 52.8399 82.9037 52.9571 82.885L53.5503 82.7802C53.6675 82.7578 53.781 82.8476 53.7994 82.9673L54.5903 87.5917C54.6123 87.7114 54.7295 87.79 54.8467 87.7676L55.4729 87.6553C55.59 87.6329 55.6779 87.5206 55.6559 87.4009L54.865 82.7765C54.854 82.6568 54.9309 82.5333 55.0481 82.5146Z" fill="white"/>
<path d="M60.7549 86.8923L60.8538 87.6593C60.8685 87.7828 60.7879 87.8913 60.6671 87.9062L60.0592 87.9885C59.9493 88.0035 59.8431 87.9212 59.8248 87.7977L59.7223 87.0046L58.5798 87.158L58.6823 87.9511C58.697 88.0746 58.6164 88.1831 58.4956 88.1981L57.8987 88.2804C57.7778 88.2953 57.6716 88.213 57.657 88.0896L57.5581 87.3226C57.5545 87.2889 57.5508 87.2627 57.5508 87.2066L57.6643 82.2943C57.668 82.1783 57.7522 82.0885 57.8621 82.0736L59.1437 81.9015C59.2536 81.8865 59.3524 81.9726 59.3817 82.0661L60.7293 86.7838C60.744 86.8325 60.7476 86.8587 60.7549 86.8923ZM59.4769 86.0356L58.6274 83.0164L58.5725 86.1553L59.4769 86.0356Z" fill="white"/>
<path d="M62.1442 81.7812L62.6056 86.6935L63.8067 86.5738C63.9276 86.5625 64.0301 86.6486 64.0411 86.7721L64.0924 87.3333C64.1033 87.4567 64.0191 87.5615 63.8983 87.5727L61.8842 87.771C61.7634 87.7822 61.6609 87.6962 61.6499 87.5727L61.1152 81.8822C61.1042 81.7587 61.1885 81.654 61.3093 81.6428L61.9099 81.5829C62.0307 81.5717 62.1332 81.6577 62.1442 81.7812Z" fill="white"/>
<path d="M65.7108 87.4379L65.1103 87.4828C64.9894 87.4903 64.8905 87.4005 64.8796 87.2771L64.4877 81.5829C64.4804 81.4594 64.5683 81.3472 64.6855 81.3397L65.286 81.2948C65.4069 81.2874 65.5094 81.3846 65.5167 81.5081L65.9086 87.2023C65.9195 87.3257 65.8317 87.4305 65.7108 87.4379Z" fill="white"/>
<path d="M69.3837 81.3053L69.4094 81.8852C69.413 82.0087 69.3142 82.1097 69.2043 82.1134L68.4646 82.1471L68.6733 87.0595C68.677 87.183 68.5891 87.284 68.4683 87.2878L67.8677 87.314C67.7542 87.3177 67.648 87.2279 67.6443 87.1044L67.4356 82.192L66.7032 82.2257C66.5824 82.2294 66.4835 82.1396 66.4798 82.0161L66.4542 81.4362C66.4505 81.3128 66.5384 81.2117 66.6593 81.208L69.164 81.0958C69.2702 81.0883 69.3764 81.1818 69.3837 81.3053Z" fill="white"/>
<path d="M72.6632 81.0409L73.2674 81.0334C73.3883 81.0334 73.4835 81.127 73.4835 81.2504L73.4908 82.1221C73.4908 82.2193 73.4761 82.3166 73.4322 82.4027L72.3593 84.7071L72.3812 86.9742C72.3812 87.0976 72.2897 87.1949 72.1688 87.1949L71.5646 87.2024C71.4438 87.2024 71.3486 87.1088 71.3486 86.9854L71.3266 84.7183L70.2024 82.4326C70.1658 82.3465 70.1401 82.2493 70.1401 82.152L70.1328 81.2804C70.1328 81.1569 70.2244 81.0596 70.3452 81.0596L70.9494 81.0522C71.0703 81.0522 71.1655 81.1457 71.1655 81.2691L71.1728 81.9388C71.1728 82.0099 71.1911 82.0809 71.2277 82.1408L71.8319 83.3828L72.4142 82.1296C72.4398 82.0697 72.4545 81.9986 72.4545 81.9276L72.4471 81.2579C72.4508 81.1419 72.5424 81.0447 72.6632 81.0409Z" fill="white"/>
<path d="M78.9582 84.2995C78.9289 84.9768 78.3686 85.4969 77.7058 85.4632C77.0503 85.4333 76.534 84.8608 76.5669 84.1835C76.5962 83.5137 77.1638 82.986 77.8193 83.0197C78.4821 83.0534 78.9874 83.6334 78.9582 84.2995Z" fill="white"/>
<path d="M85.3647 85.5114L85.2585 86.544C85.1816 87.3147 84.5078 87.8796 83.7535 87.7973L82.1276 87.6252C82.0068 87.614 81.9226 87.5055 81.9372 87.382L82.5194 81.6992C82.5304 81.5757 82.6366 81.4897 82.7575 81.5046L84.2479 81.6618C85.0022 81.7403 85.5442 82.4362 85.4673 83.2069L85.4087 83.7755C85.3794 84.0636 85.2768 84.318 85.0974 84.52C85.3025 84.8006 85.405 85.1448 85.3647 85.5114ZM84.343 85.3506C84.3614 85.1598 84.2259 84.9839 84.0464 84.9652L83.2335 84.8792L83.0467 86.6974L83.8597 86.7834C84.0391 86.8021 84.2112 86.66 84.2295 86.4617L84.343 85.3506ZM83.3324 83.8915L84.0098 83.9626C84.1893 83.9813 84.3614 83.8391 84.3797 83.6558L84.4419 83.0535C84.4602 82.8627 84.3247 82.6868 84.1453 82.6681L83.4679 82.5971L83.3324 83.8915Z" fill="white"/>
<path d="M87.7436 83.1133L87.5605 84.4116L88.3112 84.5201C88.432 84.5388 88.5126 84.6473 88.4943 84.767L88.4174 85.3058C88.3991 85.4293 88.2929 85.5116 88.1757 85.4929L87.425 85.3844L87.1687 87.2214L88.3515 87.3936C88.4723 87.4123 88.5529 87.5208 88.5346 87.6405L88.4577 88.198C88.4394 88.3215 88.3332 88.4038 88.2123 88.3851L86.2093 88.0932C86.0884 88.0745 86.0115 87.966 86.0262 87.8463L86.8172 82.1891C86.8355 82.0657 86.9417 81.9871 87.0625 82.0021L89.0656 82.2939C89.1864 82.3126 89.2633 82.4211 89.2486 82.5408L89.1717 83.0983C89.1534 83.2218 89.0472 83.3004 88.9264 83.2854L87.7436 83.1133Z" fill="white"/>
<path d="M92.1152 84.4079L92.1481 84.2245C92.1811 84.0337 92.0566 83.8579 91.8699 83.8242L91.4817 83.7532C91.295 83.7195 91.1155 83.8355 91.0826 84.0263L90.9873 84.5538C90.9544 84.7446 91.0789 84.9204 91.2656 84.9616L91.6538 85.0326C92.4082 85.1748 92.8988 85.9006 92.7597 86.6675L92.5693 87.73C92.4338 88.4932 91.7124 89.002 90.969 88.8636L90.5809 88.7925C89.8375 88.6541 89.3358 87.9171 89.4713 87.1576L89.5995 86.4468C89.6215 86.3271 89.7313 86.2485 89.8485 86.271L90.4417 86.3832C90.5589 86.4057 90.6358 86.5179 90.6138 86.6376L90.4783 87.3896C90.4454 87.5804 90.5699 87.7637 90.7566 87.7974L91.1448 87.8685C91.3316 87.9021 91.511 87.7749 91.544 87.5841L91.7454 86.458C91.7783 86.2672 91.6538 86.0914 91.467 86.0577L91.0789 85.9866C90.3355 85.8407 89.8339 85.1187 89.9694 84.3592L90.0572 83.8654C90.1927 83.1059 90.9141 82.5934 91.6575 82.7318L92.0456 82.8029C92.8 82.9413 93.2907 83.6783 93.1515 84.4378L93.1259 84.5837C93.1039 84.7034 92.9941 84.782 92.8769 84.7595L92.2837 84.6473C92.1701 84.6436 92.0932 84.5313 92.1152 84.4079Z" fill="white"/>
<path d="M97.1201 84.127L96.9956 84.692C96.97 84.8117 96.8491 84.8828 96.7393 84.8566L96.0179 84.692L94.9633 89.4883C94.9376 89.608 94.8241 89.6828 94.707 89.6529L94.1174 89.5182C94.0075 89.492 93.927 89.376 93.9563 89.2563L95.0109 84.46L94.2968 84.2954C94.1797 84.2692 94.1064 84.1532 94.1357 84.0335L94.2602 83.4686C94.2858 83.3489 94.3994 83.274 94.5165 83.304L96.959 83.8652C97.0652 83.8913 97.1457 84.0073 97.1201 84.127Z" fill="white"/>
<path d="M102.971 87.0267L102.814 87.5655C102.598 88.3063 101.825 88.7328 101.107 88.5121L100.474 88.3175L99.756 90.7682C99.7231 90.8879 99.6022 90.9515 99.4887 90.9178L98.9101 90.742C98.7929 90.7083 98.7307 90.5848 98.7673 90.4688L100.368 84.9913C100.401 84.8754 100.521 84.808 100.635 84.8417L102.052 85.2757C102.77 85.4964 103.187 86.2859 102.971 87.0267ZM101.993 86.6825C102.048 86.4954 101.953 86.3046 101.77 86.2485L101.137 86.0539L100.774 87.2998L101.408 87.4944C101.591 87.5505 101.774 87.442 101.825 87.2624L101.993 86.6825Z" fill="white"/>
<path d="M105.419 89.87L105.668 91.5274C105.679 91.6246 105.66 91.7294 105.631 91.8229L105.346 92.6535C105.305 92.7694 105.192 92.8331 105.078 92.7919L104.511 92.5861C104.397 92.545 104.331 92.4178 104.371 92.3018L104.573 91.7219C104.606 91.6321 104.62 91.5349 104.613 91.4189L104.313 89.4622L103.445 91.9763C103.405 92.0923 103.284 92.1522 103.17 92.111L102.603 91.9052C102.497 91.8678 102.431 91.7406 102.471 91.6246L104.335 86.2336C104.375 86.1176 104.503 86.0615 104.609 86.0989L106.016 86.604C106.73 86.8621 107.1 87.6665 106.847 88.396L106.667 88.9198C106.466 89.4809 105.961 89.8401 105.419 89.87ZM105.679 87.558L105.045 87.3298L104.617 88.5644L105.25 88.7926C105.422 88.8524 105.62 88.7589 105.686 88.5681L105.884 87.9957C105.95 87.8124 105.851 87.6178 105.679 87.558Z" fill="white"/>
<path d="M106.806 93.4956L106.246 93.2674C106.132 93.2225 106.081 93.0953 106.125 92.9831L108.198 87.6815C108.242 87.5656 108.37 87.5057 108.48 87.5506L109.04 87.7788C109.153 87.8237 109.201 87.9584 109.157 88.0744L107.084 93.3759C107.04 93.4882 106.92 93.5443 106.806 93.4956Z" fill="white"/>
<path d="M111.097 92.2871L111.646 92.5415C111.756 92.5938 111.8 92.7285 111.748 92.8408L111.148 94.2026C110.899 94.7638 110.247 95.022 109.69 94.7675L108.826 94.371C108.277 94.1166 108.028 93.4431 108.273 92.8819L109.844 89.3239C110.097 88.7552 110.745 88.5046 111.302 88.759L112.166 89.1556C112.722 89.4137 112.968 90.0759 112.719 90.6446L112.331 91.5276C112.283 91.6398 112.151 91.6959 112.041 91.6473L111.492 91.3929C111.382 91.3405 111.338 91.2058 111.39 91.0936L111.741 90.3004C111.789 90.1882 111.734 90.0572 111.635 90.0086L111.045 89.7392C110.935 89.6868 110.804 89.7317 110.752 89.844L109.269 93.2112C109.222 93.3234 109.277 93.4543 109.386 93.5067L109.976 93.7761C110.079 93.8247 110.21 93.7798 110.262 93.6676L110.818 92.4105C110.859 92.2945 110.987 92.2384 111.097 92.2871Z" fill="white"/>
<path d="M114.73 91.5464L114.136 92.7099L114.807 93.0691C114.913 93.1252 114.953 93.2562 114.898 93.3647L114.649 93.8473C114.594 93.9558 114.466 93.997 114.36 93.9408L113.69 93.5817L112.847 95.2279L113.909 95.7928C114.016 95.8489 114.056 95.9799 114.001 96.0884L113.745 96.586C113.69 96.6945 113.561 96.7356 113.455 96.6795L111.661 95.7217C111.555 95.6656 111.515 95.5347 111.569 95.4262L114.162 90.3566C114.217 90.2481 114.345 90.207 114.451 90.2631L116.246 91.2209C116.352 91.277 116.392 91.4079 116.337 91.5164L116.081 92.014C116.026 92.1225 115.898 92.1637 115.792 92.1076L114.73 91.5464Z" fill="white"/>
<path d="M117.923 95.7852C117.583 96.3652 116.85 96.556 116.283 96.208C115.722 95.8638 115.528 95.1117 115.869 94.5317C116.206 93.9592 116.949 93.7684 117.509 94.1089C118.081 94.4569 118.26 95.2127 117.923 95.7852Z" fill="white"/>
<path d="M75.3552 34.8172C75.3552 38.2442 72.6344 41.0239 69.2802 41.0239C65.9259 41.0239 63.2051 38.2442 63.2051 34.8172C63.2051 31.3903 69.2802 22.0858 69.2802 22.0858C69.2802 22.0858 75.3552 31.3903 75.3552 34.8172Z" fill="#767676"/>
<path d="M56.479 43.3063C54.1354 43.3063 52.2275 41.3571 52.2275 38.9626C52.2275 36.774 55.6185 31.5175 56.0066 30.9264L56.4827 30.2006L56.9587 30.9264C57.3469 31.5175 60.7378 36.774 60.7378 38.9626C60.7305 41.3571 58.8226 43.3063 56.479 43.3063ZM56.479 32.3181C55.3109 34.2 53.3664 37.612 53.3664 38.9626C53.3664 40.7136 54.7616 42.1427 56.479 42.1427C58.1928 42.1427 59.5916 40.7173 59.5916 38.9626C59.5916 37.612 57.6471 34.1963 56.479 32.3181Z" fill="#767676"/>
<path d="M83.4438 42.5541C81.1002 42.5541 79.1924 40.6049 79.1924 38.2105C79.1924 36.0218 82.5833 30.7653 82.9714 30.1742L83.4475 29.4484L83.9235 30.1742C84.3117 30.7653 87.7026 36.0218 87.7026 38.2105C87.6953 40.6049 85.7874 42.5541 83.4438 42.5541ZM83.4438 31.5659C82.2757 33.4478 80.3312 36.8598 80.3312 38.2105C80.3312 39.9651 81.7264 41.3905 83.4438 41.3905C85.1576 41.3905 86.5564 39.9651 86.5564 38.2105C86.5564 36.8598 84.612 33.4478 83.4438 31.5659Z" fill="#767676"/>
</g>
<defs>
<clipPath id="clip0_202_524">
<rect width="140" height="140" fill="white"/>
</clipPath>
</defs>
</svg>
